<svg width="40" height="40" viewBox="0 0 40 40" fill="none" xmlns="http://www.w3.org/2000/svg">
<path d="M20 0.881348C14.5725 0.881348 13.89 0.906164 11.7575 1.00047C9.625 1.09974 8.1725 1.43228 6.9 1.92365C5.56461 2.4208 4.35535 3.2027 3.3575 4.21424C2.3385 5.20478 1.55081 6.40518 1.05 7.73078C0.555 8.99147 0.2175 10.4358 0.12 12.5452C0.025 14.6671 0 15.3421 0 20.7373C0 26.1275 0.025 26.8025 0.12 28.9193C0.22 31.0337 0.555 32.4756 1.05 33.7388C1.5625 35.0441 2.245 36.1509 3.3575 37.2553C4.4675 38.3596 5.5825 39.0396 6.8975 39.5459C8.1725 40.0373 9.6225 40.3723 11.7525 40.4691C13.8875 40.5634 14.5675 40.5882 20 40.5882C25.4325 40.5882 26.11 40.5634 28.245 40.4691C30.3725 40.3698 31.83 40.0373 33.1025 39.5459C34.437 39.0484 35.6454 38.2665 36.6425 37.2553C37.755 36.1509 38.4375 35.0441 38.95 33.7388C39.4425 32.4756 39.78 31.0337 39.88 28.9193C39.975 26.8025 40 26.1275 40 20.7348C40 15.3421 39.975 14.6671 39.88 12.5477C39.78 10.4358 39.4425 8.99147 38.95 7.73078C38.4492 6.40518 37.6615 5.20478 36.6425 4.21424C35.6446 3.2027 34.4354 2.4208 33.1 1.92365C31.825 1.43228 30.37 1.09725 28.2425 1.00047C26.1075 0.906164 25.43 0.881348 19.995 0.881348H20ZM18.2075 4.45993H20.0025C25.3425 4.45993 25.975 4.4773 28.0825 4.57408C30.0325 4.66094 31.0925 4.98604 31.7975 5.25655C32.73 5.61639 33.3975 6.0482 34.0975 6.74307C34.7975 7.43794 35.23 8.09807 35.5925 9.02621C35.8675 9.72357 36.1925 10.7758 36.28 12.7115C36.3775 14.8036 36.3975 15.4314 36.3975 20.7298C36.3975 26.0282 36.3775 26.6585 36.28 28.7506C36.1925 30.6863 35.865 31.736 35.5925 32.4359C35.2696 33.2968 34.7581 34.0757 34.095 34.7165C33.395 35.4114 32.73 35.8407 31.795 36.2006C31.095 36.4736 30.035 36.7962 28.0825 36.8855C25.975 36.9798 25.3425 37.0022 20.0025 37.0022C14.6625 37.0022 14.0275 36.9798 11.92 36.8855C9.97 36.7962 8.9125 36.4736 8.2075 36.2006C7.33958 35.8811 6.554 35.3742 5.9075 34.7165C5.24318 34.0753 4.73082 33.2954 4.4075 32.4334C4.135 31.736 3.8075 30.6838 3.72 28.7481C3.625 26.6561 3.605 26.0282 3.605 20.7248C3.605 15.4215 3.625 14.7986 3.72 12.7065C3.81 10.7708 4.135 9.7186 4.41 9.01877C4.7725 8.0931 5.2075 7.43049 5.9075 6.73562C6.6075 6.04076 7.2725 5.61142 8.2075 5.25158C8.9125 4.9786 9.97 4.65598 11.92 4.56664C13.765 4.48226 14.48 4.45745 18.2075 4.45496V4.45993ZM30.6775 7.75559C30.3623 7.75559 30.0502 7.81722 29.7591 7.93694C29.4679 8.05667 29.2033 8.23216 28.9804 8.45339C28.7576 8.67461 28.5808 8.93725 28.4602 9.2263C28.3396 9.51534 28.2775 9.82514 28.2775 10.138C28.2775 10.4509 28.3396 10.7607 28.4602 11.0497C28.5808 11.3388 28.7576 11.6014 28.9804 11.8226C29.2033 12.0439 29.4679 12.2193 29.7591 12.3391C30.0502 12.4588 30.3623 12.5204 30.6775 12.5204C31.314 12.5204 31.9245 12.2694 32.3746 11.8226C32.8246 11.3758 33.0775 10.7699 33.0775 10.138C33.0775 9.50615 32.8246 8.90018 32.3746 8.45339C31.9245 8.0066 31.314 7.75559 30.6775 7.75559ZM20.0025 10.54C18.6402 10.5189 17.2872 10.7671 16.0224 11.27C14.7577 11.7729 13.6063 12.5206 12.6354 13.4695C11.6645 14.4183 10.8934 15.5495 10.3671 16.797C9.8408 18.0445 9.56975 19.3835 9.56975 20.736C9.56975 22.0885 9.8408 23.4275 10.3671 24.675C10.8934 25.9225 11.6645 27.0537 12.6354 28.0026C13.6063 28.9514 14.7577 29.6991 16.0224 30.202C17.2872 30.7049 18.6402 30.9531 20.0025 30.932C22.6989 30.8902 25.2705 29.7976 27.1624 27.8901C29.0544 25.9825 30.1148 23.4129 30.1147 20.736C30.1148 18.0591 29.0544 15.4895 27.1624 13.582C25.2705 11.6744 22.6989 10.5818 20.0025 10.54ZM20.0025 14.1161C20.8781 14.1161 21.7451 14.2873 22.554 14.6199C23.363 14.9526 24.098 15.4401 24.7171 16.0547C25.3363 16.6693 25.8274 17.3989 26.1625 18.2019C26.4975 19.0049 26.67 19.8656 26.67 20.7348C26.67 21.6039 26.4975 22.4646 26.1625 23.2676C25.8274 24.0706 25.3363 24.8003 24.7171 25.4148C24.098 26.0294 23.363 26.517 22.554 26.8496C21.7451 27.1822 20.8781 27.3534 20.0025 27.3534C18.2342 27.3534 16.5383 26.6561 15.2879 25.4148C14.0375 24.1736 13.335 22.4901 13.335 20.7348C13.335 18.9794 14.0375 17.2959 15.2879 16.0547C16.5383 14.8135 18.2342 14.1161 20.0025 14.1161Z" fill="white"/>
</svg>
