<svg width="46" height="263" viewBox="0 0 46 263" fill="none" xmlns="http://www.w3.org/2000/svg">
<path d="M0 9.99998C0 4.47714 4.47715 0 10 0H46V262.676H10C4.47715 262.676 0 258.199 0 252.676V9.99998Z" fill="#1E984F"/>
<path d="M27.912 192.283C27.6073 192.283 27.3338 192.331 27.0914 192.425C26.8413 192.512 26.6144 192.677 26.4108 192.919C26.1994 193.162 25.9917 193.502 25.7878 193.94C25.5838 194.378 25.3718 194.945 25.1517 195.641C24.9003 196.415 24.6176 197.15 24.3038 197.846C23.99 198.535 23.6256 199.145 23.2105 199.677C22.7876 200.202 22.2985 200.617 21.7433 200.923C21.188 201.222 20.5432 201.372 19.8088 201.374C19.0979 201.375 18.4537 201.221 17.8761 200.91C17.2908 200.599 16.7916 200.163 16.3786 199.601C15.9578 199.04 15.6349 198.376 15.4098 197.611C15.1847 196.839 15.073 195.991 15.0748 195.069C15.0772 193.811 15.3058 192.713 15.7607 191.775C16.2156 190.836 16.8381 190.108 17.6281 189.59C18.4182 189.065 19.321 188.801 20.3367 188.798L20.33 192.29C19.83 192.292 19.3923 192.398 19.0169 192.61C18.6337 192.814 18.3324 193.127 18.1128 193.55C17.8933 193.964 17.7829 194.488 17.7817 195.121C17.7805 195.73 17.8733 196.238 18.06 196.644C18.239 197.049 18.4845 197.354 18.7966 197.556C19.1009 197.758 19.4444 197.859 19.8272 197.858C20.1163 197.857 20.3782 197.786 20.6128 197.645C20.8475 197.496 21.0666 197.277 21.2703 196.987C21.474 196.697 21.6661 196.342 21.8465 195.919C22.027 195.497 22.2037 195.008 22.3767 194.453C22.6597 193.523 22.9776 192.705 23.3305 192.001C23.6835 191.29 24.0791 190.695 24.5175 190.217C24.9559 189.739 25.4527 189.379 26.0078 189.135C26.563 188.892 27.1921 188.769 27.8953 188.767C28.6374 188.765 29.3012 188.908 29.8866 189.196C30.472 189.483 30.9673 189.9 31.3725 190.446C31.7777 190.991 32.0851 191.643 32.2946 192.4C32.5041 193.158 32.6079 194.005 32.6061 194.942C32.6045 195.786 32.4936 196.619 32.2733 197.439C32.0451 198.26 31.7039 199.007 31.2495 199.68C30.7951 200.346 30.216 200.878 29.5121 201.278C28.8082 201.679 27.9758 201.88 27.0149 201.882L27.0216 198.355C27.5528 198.354 28.0022 198.271 28.3697 198.106C28.7372 197.941 29.0345 197.709 29.2616 197.412C29.4888 197.107 29.6535 196.747 29.7559 196.333C29.8582 195.91 29.9099 195.449 29.9108 194.949C29.912 194.34 29.827 193.84 29.6559 193.45C29.4847 193.052 29.247 192.76 28.9427 192.573C28.6384 192.378 28.2948 192.282 27.912 192.283ZM29.3668 179.084L19.7223 179.108L19.7287 175.733L32.4083 175.701L32.4023 178.877L29.3668 179.084ZM26.7659 178.715L26.7444 177.719C27.5881 177.717 28.3731 177.813 29.0993 178.006C29.8177 178.2 30.4421 178.491 30.9726 178.88C31.4953 179.27 31.9045 179.761 32.2003 180.354C32.4882 180.947 32.6314 181.646 32.6299 182.45C32.6287 183.067 32.5417 183.638 32.3688 184.162C32.1881 184.678 31.91 185.124 31.5342 185.5C31.1507 185.868 30.6619 186.158 30.0678 186.371C29.4658 186.576 28.743 186.679 27.8992 186.681L19.7078 186.702L19.7143 183.327L27.9291 183.306C28.3041 183.305 28.6206 183.261 28.8785 183.175C29.1365 183.08 29.3477 182.951 29.5121 182.786C29.6765 182.622 29.794 182.43 29.8647 182.211C29.9355 181.985 29.9711 181.734 29.9716 181.461C29.973 180.766 29.8334 180.219 29.5529 179.821C29.2724 179.416 28.8901 179.132 28.4061 178.969C27.9142 178.798 27.3675 178.714 26.7659 178.715ZM22.1775 169.774L37.2946 169.735L37.2882 173.11L19.7336 173.155L19.7395 170.026L22.1775 169.774ZM25.9545 161.737L26.2006 161.736C27.1224 161.734 27.9777 161.841 28.7663 162.058C29.555 162.267 30.2419 162.578 30.8271 162.99C31.4044 163.403 31.8565 163.917 32.1835 164.534C32.5026 165.142 32.6615 165.845 32.6599 166.642C32.6585 167.415 32.5009 168.087 32.1874 168.659C31.8738 169.23 31.4354 169.711 30.8721 170.103C30.3011 170.488 29.6403 170.798 28.8899 171.034C28.1395 171.27 27.3344 171.452 26.4748 171.579L25.8303 171.581C24.9087 171.458 24.0653 171.281 23.3001 171.048C22.5271 170.816 21.8597 170.509 21.2979 170.128C20.7284 169.739 20.2879 169.263 19.9764 168.701C19.665 168.132 19.51 167.464 19.5115 166.699C19.513 165.894 19.6667 165.187 19.9726 164.577C20.2784 163.959 20.7169 163.442 21.288 163.026C21.8591 162.603 22.5394 162.285 23.3289 162.072C24.1183 161.851 24.9935 161.739 25.9545 161.737ZM26.1941 165.123L25.948 165.124C25.409 165.125 24.9128 165.173 24.4595 165.268C23.9984 165.355 23.5958 165.497 23.2517 165.693C22.9076 165.882 22.6415 166.132 22.4534 166.445C22.2575 166.75 22.1591 167.122 22.1583 167.559C22.1574 168.02 22.2309 168.414 22.3787 168.742C22.5265 169.062 22.7409 169.323 23.0217 169.526C23.3026 169.728 23.6382 169.88 24.0287 169.98C24.4191 170.081 24.8604 170.142 25.3525 170.164L26.9814 170.16C27.5596 170.12 28.0794 170.009 28.5406 169.828C28.9941 169.647 29.354 169.369 29.6203 168.993C29.8867 168.618 30.0204 168.125 30.0216 167.516C30.0224 167.07 29.9255 166.696 29.7308 166.391C29.5282 166.087 29.2513 165.842 28.9001 165.655C28.5489 165.461 28.143 165.325 27.6822 165.248C27.2214 165.163 26.7254 165.122 26.1941 165.123ZM26.227 160.178L25.9809 160.178C25.0512 160.181 24.196 160.05 23.4152 159.787C22.6267 159.523 21.9438 159.138 21.3667 158.632C20.7895 158.125 20.3415 157.501 20.0226 156.76C19.6959 156.019 19.5334 155.168 19.5353 154.207C19.5371 153.246 19.7028 152.39 20.0323 151.639C20.3541 150.888 20.8045 150.258 21.3836 149.749C21.9627 149.232 22.647 148.839 23.4366 148.572C24.2183 148.304 25.074 148.169 26.0037 148.167L26.2498 148.166C27.1717 148.164 28.0269 148.294 28.8155 148.558C29.5962 148.822 30.279 149.21 30.864 149.725C31.4412 150.231 31.8892 150.855 32.2081 151.596C32.527 152.337 32.6855 153.189 32.6837 154.15C32.6819 155.111 32.5201 155.966 32.1984 156.717C31.8766 157.46 31.4262 158.09 30.8471 158.607C30.2602 159.117 29.5759 159.505 28.7941 159.773C28.0046 160.04 27.1488 160.175 26.227 160.178ZM25.9873 156.803L26.2334 156.803C26.7646 156.801 27.2608 156.753 27.7219 156.658C28.1831 156.563 28.5896 156.414 28.9415 156.21C29.2857 155.998 29.5557 155.724 29.7517 155.388C29.9476 155.051 30.0461 154.641 30.047 154.156C30.0479 153.688 29.951 153.285 29.7563 152.95C29.5616 152.615 29.2926 152.346 28.9493 152.144C28.5981 151.941 28.1921 151.794 27.7314 151.701C27.2706 151.601 26.7746 151.551 26.2434 151.553L25.9973 151.553C25.4817 151.555 24.9972 151.607 24.5439 151.709C24.0828 151.804 23.6762 151.958 23.3243 152.17C22.9645 152.374 22.6827 152.644 22.479 152.98C22.2752 153.317 22.1729 153.723 22.172 154.2C22.1711 154.676 22.2719 155.082 22.4743 155.418C22.6768 155.745 22.9576 156.014 23.3165 156.224C23.6677 156.427 24.0737 156.574 24.5344 156.666C24.9874 156.759 25.4717 156.805 25.9873 156.803ZM22.5571 142.726L32.4711 142.701L32.4647 146.076L19.785 146.108L19.7911 142.933L22.5571 142.726ZM19.7167 138.913L22.8455 138.964C22.8217 139.128 22.8018 139.327 22.7857 139.562C22.7619 139.788 22.7498 139.995 22.7494 140.183C22.7485 140.659 22.8102 141.073 22.9345 141.425C23.0511 141.768 23.2263 142.057 23.4602 142.29C23.6942 142.516 23.979 142.688 24.3147 142.804C24.6504 142.912 25.0331 142.974 25.4628 142.988L25.2506 143.669C24.4303 143.671 23.6765 143.591 22.9893 143.428C22.2943 143.266 21.6893 143.029 21.1743 142.718C20.6593 142.399 20.2616 142.01 19.9812 141.549C19.7008 141.089 19.5612 140.562 19.5623 139.968C19.5627 139.781 19.5787 139.589 19.6103 139.394C19.6341 139.199 19.6696 139.038 19.7167 138.913ZM19.8147 130.522L22.2053 130.516L22.1912 137.899L19.8006 137.905L19.8147 130.522ZM16.6752 136.085L16.6816 132.71L28.6699 132.68C29.0371 132.679 29.3184 132.631 29.5139 132.537C29.7094 132.435 29.8464 132.286 29.9249 132.09C29.9956 131.895 30.0312 131.649 30.0318 131.352C30.0322 131.141 30.0247 130.953 30.0094 130.789C29.9863 130.618 29.9631 130.473 29.9399 130.356L32.4243 130.338C32.5175 130.627 32.5911 130.939 32.6452 131.275C32.6992 131.611 32.7259 131.982 32.7251 132.388C32.7237 133.13 32.6013 133.779 32.3581 134.334C32.1071 134.882 31.7078 135.305 31.1604 135.603C30.6129 135.901 29.8939 136.051 29.0033 136.054L16.6752 136.085ZM32.7434 122.732C32.7416 123.716 32.5836 124.599 32.2697 125.381C31.9479 126.163 31.5052 126.829 30.9417 127.377C30.3781 127.917 29.725 128.333 28.9823 128.624C28.2317 128.915 27.4346 129.062 26.5908 129.064L26.1221 129.065C25.1611 129.067 24.2825 128.933 23.4861 128.662C22.6898 128.39 21.9991 128.001 21.4142 127.495C20.8292 126.981 20.3812 126.357 20.0701 125.623C19.7512 124.89 19.5926 124.062 19.5943 123.14C19.596 122.242 19.746 121.445 20.0442 120.748C20.3424 120.052 20.7654 119.469 21.3131 118.999C21.8609 118.521 22.5178 118.16 23.2839 117.916C24.0422 117.672 24.8862 117.549 25.8159 117.546L27.2221 117.543L27.2029 127.621L24.9529 127.627L24.9658 120.865L24.708 120.865C24.2392 120.867 23.8211 120.954 23.4536 121.127C23.0783 121.292 22.7809 121.542 22.5616 121.879C22.3422 122.215 22.232 122.645 22.231 123.169C22.2301 123.614 22.3271 123.997 22.5218 124.316C22.7165 124.636 22.9894 124.897 23.3406 125.099C23.6918 125.294 24.1055 125.441 24.5819 125.542C25.0505 125.634 25.566 125.68 26.1285 125.678L26.5973 125.677C27.1051 125.676 27.574 125.604 28.0039 125.463C28.4339 125.313 28.8054 125.105 29.1184 124.839C29.4314 124.564 29.6742 124.236 29.8468 123.852C30.0194 123.461 30.1062 123.02 30.1071 122.527C30.1083 121.918 29.9922 121.352 29.7588 120.829C29.5176 120.299 29.1552 119.842 28.6716 119.461L30.4559 117.816C30.8382 118.08 31.2047 118.443 31.5554 118.903C31.9061 119.355 32.1941 119.901 32.4195 120.541C32.637 121.181 32.745 121.911 32.7434 122.732ZM28.0864 100.548C27.7818 100.549 27.5082 100.597 27.2659 100.691C27.0157 100.778 26.7888 100.942 26.5852 101.185C26.3738 101.428 26.1662 101.768 25.9622 102.206C25.7583 102.644 25.5462 103.211 25.3262 103.907C25.0747 104.681 24.7921 105.416 24.4782 106.112C24.1644 106.801 23.8 107.411 23.3849 107.943C22.9621 108.468 22.473 108.883 21.9177 109.189C21.3625 109.487 20.7177 109.637 19.9833 109.639C19.2723 109.641 18.6281 109.487 18.0506 109.176C17.4652 108.865 16.9661 108.428 16.5531 107.867C16.1323 107.305 15.8093 106.642 15.5842 105.877C15.3591 105.104 15.2475 104.257 15.2492 103.335C15.2516 102.077 15.4803 100.979 15.9352 100.04C16.3901 99.1017 17.0125 98.3736 17.8026 97.8559C18.5926 97.3305 19.4955 97.0665 20.5111 97.0639L20.5045 100.556C20.0045 100.557 19.5668 100.664 19.1914 100.876C18.8082 101.08 18.5068 101.393 18.2872 101.816C18.0677 102.23 17.9573 102.754 17.9561 103.387C17.955 103.996 18.0478 104.504 18.2345 104.909C18.4134 105.315 18.6589 105.619 18.971 105.822C19.2753 106.024 19.6189 106.125 20.0017 106.124C20.2907 106.123 20.5526 106.052 20.7872 105.911C21.0219 105.762 21.2411 105.542 21.4447 105.253C21.6484 104.963 21.8405 104.607 22.021 104.185C22.2015 103.763 22.3782 103.274 22.5511 102.719C22.8341 101.788 23.1521 100.971 23.505 100.267C23.8579 99.5553 24.2536 98.9605 24.692 98.4829C25.1304 98.0052 25.6271 97.6445 26.1823 97.4009C26.7374 97.1573 27.3666 97.0346 28.0697 97.0328C28.8119 97.0309 29.4757 97.1738 30.061 97.4613C30.6464 97.7489 31.1417 98.1656 31.5469 98.7114C31.9521 99.2573 32.2595 99.9088 32.469 100.666C32.6785 101.423 32.7823 102.271 32.7806 103.208C32.779 104.052 32.668 104.884 32.4477 105.705C32.2196 106.526 31.8783 107.273 31.4239 107.946C30.9695 108.611 30.3904 109.144 29.6865 109.544C28.9826 109.944 28.1502 110.146 27.1893 110.148L27.196 106.621C27.7272 106.62 28.1766 106.536 28.5441 106.371C28.9116 106.206 29.2089 105.975 29.4361 105.678C29.6632 105.372 29.8279 105.013 29.9303 104.598C30.0327 104.176 30.0843 103.715 30.0853 103.215C30.0864 102.606 30.0014 102.106 29.8303 101.716C29.6592 101.318 29.4215 101.025 29.1171 100.839C28.8128 100.644 28.4693 100.547 28.0864 100.548ZM29.8421 83.1886L32.5843 83.1816L32.567 92.2636L29.8248 92.2706L29.8421 83.1886ZM15.5067 91.1587L32.5692 91.1151L32.5625 94.6308L15.5001 94.6743L15.5067 91.1587ZM22.4688 84.391L25.1406 84.3842L25.1256 92.2826L22.4538 92.2894L22.4688 84.391ZM15.5218 83.2369L18.2757 83.2298L18.2585 92.3001L15.5046 92.3072L15.5218 83.2369ZM28.1402 72.2594C27.8355 72.2602 27.562 72.3077 27.3197 72.4021C27.0695 72.4887 26.8426 72.6533 26.639 72.896C26.4276 73.1388 26.22 73.4791 26.016 73.9171C25.8121 74.3552 25.6 74.9221 25.38 75.618C25.1285 76.3921 24.8459 77.1271 24.532 77.8233C24.2182 78.5116 23.8538 79.1219 23.4387 79.6542C23.0158 80.1787 22.5268 80.594 21.9715 80.9001C21.4163 81.1984 20.7714 81.3485 20.0371 81.3503C19.3261 81.3522 18.6819 81.1976 18.1044 80.8865C17.519 80.5755 17.0199 80.1393 16.6069 79.5779C16.1861 79.0164 15.8631 78.3532 15.638 77.5882C15.4129 76.8153 15.3013 75.9679 15.303 75.0461C15.3054 73.7883 15.5341 72.69 15.989 71.7514C16.4439 70.8127 17.0663 70.0846 17.8564 69.5669C18.6464 69.0415 19.5493 68.7775 20.5649 68.7749L20.5583 72.267C20.0583 72.2683 19.6206 72.3749 19.2452 72.5868C18.862 72.7909 18.5606 73.1042 18.341 73.5266C18.1215 73.9412 18.0111 74.4649 18.0099 75.0978C18.0088 75.7071 18.1015 76.2147 18.2883 76.6205C18.4672 77.0263 18.7127 77.3303 19.0248 77.5326C19.3291 77.735 19.6727 77.8357 20.0555 77.8347C20.3445 77.834 20.6064 77.763 20.841 77.6217C21.0757 77.4727 21.2949 77.2534 21.4985 76.9638C21.7022 76.6742 21.8943 76.3183 22.0748 75.896C22.2553 75.4736 22.432 74.9849 22.6049 74.4298C22.8879 73.4994 23.2059 72.6821 23.5588 71.9781C23.9117 71.2663 24.3073 70.6715 24.7458 70.1939C25.1842 69.7162 25.6809 69.3555 26.2361 69.1119C26.7912 68.8683 27.4204 68.7456 28.1235 68.7438C28.8657 68.7419 29.5295 68.8848 30.1148 69.1723C30.7002 69.4599 31.1955 69.8766 31.6007 70.4224C32.0059 70.9683 32.3133 71.6198 32.5228 72.3771C32.7323 73.1344 32.8361 73.9818 32.8344 74.9192C32.8328 75.763 32.7218 76.5953 32.5015 77.4162C32.2734 78.2371 31.9321 78.984 31.4777 79.6571C31.0233 80.3223 30.4442 80.855 29.7403 81.2552C29.0364 81.6555 28.204 81.8568 27.2431 81.8593L27.2498 78.3319C27.781 78.3306 28.2304 78.2474 28.5979 78.0824C28.9654 77.9174 29.2627 77.6862 29.4898 77.3887C29.717 77.0834 29.8817 76.7237 29.9841 76.3093C30.0864 75.8872 30.1381 75.4261 30.1391 74.9261C30.1402 74.3168 30.0552 73.817 29.8841 73.4268C29.713 73.0288 29.4753 72.7364 29.1709 72.5497C28.8666 72.3552 28.523 72.2584 28.1402 72.2594ZM15.561 62.6471L32.6234 62.6035L32.6167 66.1074L15.5543 66.151L15.561 62.6471Z" fill="white"/>
</svg>
