<svg width="40" height="40" viewBox="0 0 40 40" fill="none" xmlns="http://www.w3.org/2000/svg">
<path d="M34.1562 5.81512C32.3144 3.96386 30.1208 2.49624 27.7032 1.49787C25.2857 0.499491 22.6926 -0.00965202 20.0753 0.000138562C9.10849 0.000138562 0.170768 8.89511 0.160723 19.8151C0.160723 23.3126 1.07986 26.715 2.81517 29.7275L0 40L10.5575 37.245C13.4769 38.8306 16.7498 39.6602 20.0753 39.6575H20.0854C31.0547 39.6575 39.9899 30.7625 40 19.8326C40.0022 17.2277 39.4868 14.6482 38.4835 12.2425C37.4801 9.83673 36.0111 7.65236 34.1562 5.81512ZM20.0753 36.3025C17.1099 36.3002 14.1995 35.5059 11.6474 34.0025L11.0447 33.6425L4.78152 35.2775L6.45404 29.195L6.06228 28.5675C4.40434 25.9434 3.52749 22.9051 3.5334 19.8051C3.5334 10.7401 10.9593 3.34513 20.0854 3.34513C22.2595 3.34124 24.4129 3.76581 26.4214 4.59435C28.43 5.42289 30.2539 6.63902 31.788 8.17261C33.3272 9.70048 34.5474 11.5165 35.3784 13.5159C36.2094 15.5154 36.6347 17.6588 36.6298 19.8226C36.6198 28.92 29.1939 36.3025 20.0753 36.3025ZM29.1537 23.9676C28.659 23.7201 26.2155 22.5226 25.7559 22.3526C25.2988 22.1901 24.9648 22.1051 24.6384 22.6001C24.3044 23.0926 23.3501 24.2151 23.0638 24.5376C22.7775 24.8701 22.4812 24.9076 21.9839 24.6626C21.4892 24.4126 19.8845 23.8926 17.9859 22.2001C16.5043 20.8876 15.5123 19.2626 15.216 18.7701C14.9297 18.2751 15.1883 18.0101 15.437 17.7626C15.6554 17.5426 15.9317 17.1826 16.1803 16.8976C16.4314 16.6126 16.5143 16.4026 16.6775 16.0726C16.8408 15.7376 16.7629 15.4526 16.6399 15.2051C16.5143 14.9576 15.5223 12.5151 15.103 11.5301C14.7012 10.5576 14.2918 10.6926 13.9854 10.6801C13.6991 10.6626 13.3651 10.6626 13.0311 10.6626C12.7789 10.669 12.5308 10.7271 12.3022 10.8334C12.0736 10.9396 11.8695 11.0917 11.7027 11.2801C11.2456 11.7751 9.96735 12.9726 9.96735 15.4151C9.96735 17.8576 11.7504 20.2051 12.0015 20.5376C12.2476 20.8701 15.5023 25.8676 20.4972 28.0175C21.6775 28.53 22.6067 28.8325 23.3325 29.0625C24.5254 29.4425 25.6027 29.385 26.4616 29.2625C27.4159 29.1175 29.4023 28.0625 29.8217 26.905C30.2335 25.7451 30.2335 24.7551 30.108 24.5476C29.9849 24.3376 29.6509 24.2151 29.1537 23.9676Z" fill="white"/>
</svg>
